<svg id="UDINA_Logo" data-name="UDINA Logo" xmlns="http://www.w3.org/2000/svg" viewBox="0 0 597.78 189.02"><g id="slogan"><path d="M595.45,161.55a1.49,1.49,0,0,1-1.53,1.71H579.81a13.21,13.21,0,0,0,.36,3.22,6.18,6.18,0,0,0,1.2,2.45,5.36,5.36,0,0,0,2.17,1.57,8.62,8.62,0,0,0,3.28.55,14,14,0,0,0,2.73-.25,16.35,16.35,0,0,0,2.07-.56c.58-.21,1.06-.39,1.43-.56a2.32,2.32,0,0,1,.85-.25.61.61,0,0,1,.3.08.5.5,0,0,1,.2.25,1.55,1.55,0,0,1,.11.47,6.89,6.89,0,0,1,0,.72,4.16,4.16,0,0,1,0,.54,2.25,2.25,0,0,1-.06.4.82.82,0,0,1-.12.32,1.08,1.08,0,0,1-.21.28,3.88,3.88,0,0,1-.77.43,11.3,11.3,0,0,1-1.67.58,22.86,22.86,0,0,1-2.37.51,17.29,17.29,0,0,1-2.87.23,13.35,13.35,0,0,1-4.63-.74,8.53,8.53,0,0,1-3.34-2.19,9.3,9.3,0,0,1-2.05-3.64,17,17,0,0,1-.69-5.1,15.92,15.92,0,0,1,.72-5,10.42,10.42,0,0,1,2.06-3.74,8.84,8.84,0,0,1,3.24-2.35,10.63,10.63,0,0,1,4.27-.82,10.43,10.43,0,0,1,4.29.8,8.18,8.18,0,0,1,2.92,2.18,8.92,8.92,0,0,1,1.68,3.22,14.32,14.32,0,0,1,.53,3.94Zm-4-1.17a7.1,7.1,0,0,0-1.38-4.85,5.22,5.22,0,0,0-4.3-1.76,5.77,5.77,0,0,0-2.56.54,5.52,5.52,0,0,0-1.84,1.46,6.47,6.47,0,0,0-1.15,2.1,8.77,8.77,0,0,0-.46,2.51Z" fill="#7c8a99"/><path d="M572,169.93c0,.27,0,.5,0,.7a2.09,2.09,0,0,1-.08.5,2.46,2.46,0,0,1-.14.36,2.61,2.61,0,0,1-.38.45,6.46,6.46,0,0,1-1,.74,10.47,10.47,0,0,1-1.61.78,11.91,11.91,0,0,1-1.94.56,10.31,10.31,0,0,1-2.17.22,10.47,10.47,0,0,1-4.09-.76,7.72,7.72,0,0,1-3-2.23,10.14,10.14,0,0,1-1.83-3.59,17.39,17.39,0,0,1-.63-4.92,17.15,17.15,0,0,1,.77-5.44,10.23,10.23,0,0,1,2.12-3.72,8.38,8.38,0,0,1,3.17-2.16,10.77,10.77,0,0,1,3.94-.7,9.92,9.92,0,0,1,2,.19,10.68,10.68,0,0,1,1.78.5,8,8,0,0,1,1.44.71,5.66,5.66,0,0,1,.91.69,4,4,0,0,1,.4.46,1.39,1.39,0,0,1,.17.39,2.43,2.43,0,0,1,.1.51c0,.19,0,.43,0,.72a2.81,2.81,0,0,1-.21,1.29.61.61,0,0,1-.53.37,1.38,1.38,0,0,1-.82-.39q-.46-.39-1.17-.87a9,9,0,0,0-1.73-.87A6.61,6.61,0,0,0,565,154a5,5,0,0,0-4.35,2.18,11,11,0,0,0-1.51,6.32,15.06,15.06,0,0,0,.39,3.63,7.6,7.6,0,0,0,1.16,2.6,4.74,4.74,0,0,0,1.87,1.56,6,6,0,0,0,2.53.51,6.21,6.21,0,0,0,2.38-.42,9.86,9.86,0,0,0,1.78-.95c.5-.34.92-.65,1.26-.92a1.46,1.46,0,0,1,.8-.42.45.45,0,0,1,.28.09.74.74,0,0,1,.2.33,2,2,0,0,1,.12.57A6.5,6.5,0,0,1,572,169.93Z" fill="#7c8a99"/><path d="M549.39,173.19a.55.55,0,0,1-.09.32.86.86,0,0,1-.31.23,2.31,2.31,0,0,1-.6.14,8.12,8.12,0,0,1-.95.05,8.56,8.56,0,0,1-1-.05,2.22,2.22,0,0,1-.59-.14.78.78,0,0,1-.31-.23.55.55,0,0,1-.1-.32V160.65a12.45,12.45,0,0,0-.28-3,6.23,6.23,0,0,0-.83-1.92,3.61,3.61,0,0,0-1.42-1.24,4.44,4.44,0,0,0-2-.43,5,5,0,0,0-2.95,1.05,15.87,15.87,0,0,0-3.1,3.07v15a.55.55,0,0,1-.09.32.86.86,0,0,1-.31.23,2.31,2.31,0,0,1-.6.14,9.34,9.34,0,0,1-1.93,0,2.42,2.42,0,0,1-.6-.14.66.66,0,0,1-.31-.23.55.55,0,0,1-.09-.32V151.77a.61.61,0,0,1,.08-.32.57.57,0,0,1,.28-.24,1.58,1.58,0,0,1,.55-.14,6.93,6.93,0,0,1,.88,0,7.06,7.06,0,0,1,.87,0,1.3,1.3,0,0,1,.53.14.75.75,0,0,1,.28.24.61.61,0,0,1,.08.32v2.83a13,13,0,0,1,3.61-3,7.73,7.73,0,0,1,3.63-.94,8.07,8.07,0,0,1,3.6.72,6.49,6.49,0,0,1,2.37,1.94,7.6,7.6,0,0,1,1.3,2.85,17,17,0,0,1,.39,3.91Z" fill="#7c8a99"/><path d="M525,161.55a1.49,1.49,0,0,1-1.53,1.71H509.33a13.21,13.21,0,0,0,.36,3.22,6.18,6.18,0,0,0,1.2,2.45,5.3,5.3,0,0,0,2.17,1.57,8.62,8.62,0,0,0,3.28.55,14,14,0,0,0,2.73-.25,16.82,16.82,0,0,0,2.07-.56c.58-.21,1.06-.39,1.43-.56a2.32,2.32,0,0,1,.85-.25.61.61,0,0,1,.3.08.56.56,0,0,1,.2.25,1.55,1.55,0,0,1,.11.47,6.89,6.89,0,0,1,0,.72,4.16,4.16,0,0,1,0,.54,2.25,2.25,0,0,1-.06.4.82.82,0,0,1-.12.32,1.08,1.08,0,0,1-.21.28,4.23,4.23,0,0,1-.77.43,11.3,11.3,0,0,1-1.67.58,22.86,22.86,0,0,1-2.37.51,17.38,17.38,0,0,1-2.87.23,13.35,13.35,0,0,1-4.63-.74,8.53,8.53,0,0,1-3.34-2.19,9.3,9.3,0,0,1-2.05-3.64,17,17,0,0,1-.69-5.1,15.92,15.92,0,0,1,.72-5,10.56,10.56,0,0,1,2-3.74,9,9,0,0,1,3.25-2.35,10.61,10.61,0,0,1,4.26-.82,10.45,10.45,0,0,1,4.3.8,8.27,8.27,0,0,1,2.92,2.18,8.75,8.75,0,0,1,1.67,3.22,14,14,0,0,1,.54,3.94Zm-4-1.17a7.1,7.1,0,0,0-1.38-4.85,5.22,5.22,0,0,0-4.3-1.76,5.74,5.74,0,0,0-2.56.54,5.52,5.52,0,0,0-1.84,1.46,6.47,6.47,0,0,0-1.15,2.1,8.77,8.77,0,0,0-.46,2.51Z" fill="#7c8a99"/><path d="M499.43,173.19a.49.49,0,0,1-.1.32.74.74,0,0,1-.3.23,2.42,2.42,0,0,1-.6.14,8.43,8.43,0,0,1-1,.05,8.25,8.25,0,0,1-.95-.05,2.63,2.63,0,0,1-.61-.14.62.62,0,0,1-.3-.23.55.55,0,0,1-.09-.32v-31.8a.58.58,0,0,1,.09-.33.54.54,0,0,1,.3-.24,2.58,2.58,0,0,1,.61-.15,8.54,8.54,0,0,1,.95,0,8.78,8.78,0,0,1,1,0,2.37,2.37,0,0,1,.6.15.62.62,0,0,1,.3.24.52.52,0,0,1,.1.33Z" fill="#7c8a99"/><path d="M488.24,173.19a.55.55,0,0,1-.09.32.86.86,0,0,1-.31.23,2.31,2.31,0,0,1-.6.14,9.34,9.34,0,0,1-1.93,0,2.42,2.42,0,0,1-.6-.14.66.66,0,0,1-.31-.23.55.55,0,0,1-.09-.32v-31.8a.58.58,0,0,1,.09-.33.56.56,0,0,1,.31-.24,2.37,2.37,0,0,1,.6-.15,11.66,11.66,0,0,1,1.93,0,2.26,2.26,0,0,1,.6.15.7.7,0,0,1,.31.24.58.58,0,0,1,.09.33Z" fill="#7c8a99"/><path d="M478.34,161.55a1.64,1.64,0,0,1-.47,1.32,1.6,1.6,0,0,1-1.06.39H462.7a13.21,13.21,0,0,0,.36,3.22,6.18,6.18,0,0,0,1.2,2.45,5.3,5.3,0,0,0,2.17,1.57,8.59,8.59,0,0,0,3.28.55,14,14,0,0,0,2.73-.25,16.16,16.16,0,0,0,2.06-.56c.59-.21,1.07-.39,1.44-.56a2.32,2.32,0,0,1,.85-.25.61.61,0,0,1,.3.08.56.56,0,0,1,.2.25,1.55,1.55,0,0,1,.11.47,6.89,6.89,0,0,1,0,.72,4.16,4.16,0,0,1,0,.54,2.25,2.25,0,0,1-.06.4.82.82,0,0,1-.12.32,1.08,1.08,0,0,1-.21.28,4.09,4.09,0,0,1-.78.43,10.73,10.73,0,0,1-1.66.58,22.86,22.86,0,0,1-2.37.51,17.38,17.38,0,0,1-2.87.23,13.35,13.35,0,0,1-4.63-.74,8.53,8.53,0,0,1-3.34-2.19,9.3,9.3,0,0,1-2.05-3.64,17,17,0,0,1-.69-5.1,16.23,16.23,0,0,1,.71-5,10.73,10.73,0,0,1,2.06-3.74,9,9,0,0,1,3.25-2.35,10.61,10.61,0,0,1,4.26-.82,10.45,10.45,0,0,1,4.3.8,8.27,8.27,0,0,1,2.92,2.18,8.75,8.75,0,0,1,1.67,3.22,14,14,0,0,1,.54,3.94Zm-3.95-1.17a7.1,7.1,0,0,0-1.38-4.85,5.22,5.22,0,0,0-4.3-1.76,5.74,5.74,0,0,0-2.56.54,5.52,5.52,0,0,0-1.84,1.46,6.47,6.47,0,0,0-1.15,2.1,8.44,8.44,0,0,0-.46,2.51Z" fill="#7c8a99"/><path d="M454.85,169.93c0,.27,0,.5,0,.7a2.09,2.09,0,0,1-.08.5,2.46,2.46,0,0,1-.14.36,3.19,3.19,0,0,1-.38.45,6.17,6.17,0,0,1-1,.74,9.92,9.92,0,0,1-1.6.78,11.91,11.91,0,0,1-1.94.56,10.31,10.31,0,0,1-2.17.22,10.47,10.47,0,0,1-4.09-.76,7.72,7.72,0,0,1-3-2.23,10.14,10.14,0,0,1-1.83-3.59,17.39,17.39,0,0,1-.63-4.92,16.87,16.87,0,0,1,.77-5.44,10.09,10.09,0,0,1,2.12-3.72,8.34,8.34,0,0,1,3.16-2.16,10.85,10.85,0,0,1,3.94-.7,10,10,0,0,1,2,.19,10.83,10.83,0,0,1,1.77.5,8,8,0,0,1,1.44.71,5.84,5.84,0,0,1,.92.69,3,3,0,0,1,.39.46,1.4,1.4,0,0,1,.18.39,2.43,2.43,0,0,1,.1.51c0,.19,0,.43,0,.72a2.81,2.81,0,0,1-.21,1.29.62.62,0,0,1-.53.37,1.38,1.38,0,0,1-.82-.39,13.53,13.53,0,0,0-1.18-.87,8.61,8.61,0,0,0-1.72-.87,6.65,6.65,0,0,0-2.39-.39,5,5,0,0,0-4.35,2.18,11,11,0,0,0-1.51,6.32,15.06,15.06,0,0,0,.39,3.63,7.41,7.41,0,0,0,1.16,2.6,4.68,4.68,0,0,0,1.87,1.56,6,6,0,0,0,2.53.51,6.21,6.21,0,0,0,2.38-.42,9.75,9.75,0,0,0,1.77-.95c.5-.34.92-.65,1.27-.92a1.47,1.47,0,0,1,.79-.42.48.48,0,0,1,.29.09.74.74,0,0,1,.2.33,2,2,0,0,1,.12.57C454.83,169.34,454.85,169.61,454.85,169.93Z" fill="#7c8a99"/><path d="M435.66,172.74a1.19,1.19,0,0,1,.2.56.44.44,0,0,1-.23.37,1.84,1.84,0,0,1-.69.2,9.72,9.72,0,0,1-1.2.06,11.18,11.18,0,0,1-1.13,0,2.61,2.61,0,0,1-.67-.12.86.86,0,0,1-.38-.21,1.7,1.7,0,0,1-.23-.3l-5.14-8.5-5.12,8.5a1.66,1.66,0,0,1-.22.3.92.92,0,0,1-.38.21,2.6,2.6,0,0,1-.66.12,10.38,10.38,0,0,1-1.07,0,8.62,8.62,0,0,1-1.13-.06,1.55,1.55,0,0,1-.64-.2.4.4,0,0,1-.19-.37,1.15,1.15,0,0,1,.22-.56l6.67-10.45-6.31-10.07a1.31,1.31,0,0,1-.2-.56.41.41,0,0,1,.21-.38,1.53,1.53,0,0,1,.69-.2,10.36,10.36,0,0,1,1.23-.05c.46,0,.83,0,1.11,0a3.07,3.07,0,0,1,.65.1.87.87,0,0,1,.36.19,1.27,1.27,0,0,1,.21.29l4.88,8,4.95-8a1.38,1.38,0,0,1,.22-.26.89.89,0,0,1,.32-.21,2.12,2.12,0,0,1,.57-.11,12.78,12.78,0,0,1,2.14,0,1.64,1.64,0,0,1,.66.18.37.37,0,0,1,.19.36,1.69,1.69,0,0,1-.24.6l-6.26,9.95Z" fill="#7c8a99"/><path d="M413.22,172.09a5.32,5.32,0,0,1-.05.75,1.49,1.49,0,0,1-.17.54.84.84,0,0,1-.27.31.67.67,0,0,1-.34.09H397.6a1.7,1.7,0,0,1-1-.36,1.53,1.53,0,0,1-.49-1.3V144.65a1.53,1.53,0,0,1,.49-1.3,1.71,1.71,0,0,1,1-.37h14.62a.65.65,0,0,1,.34.1.61.61,0,0,1,.25.31,2.08,2.08,0,0,1,.16.53,4.5,4.5,0,0,1,.06.8,4.06,4.06,0,0,1-.06.75,1.78,1.78,0,0,1-.16.52.58.58,0,0,1-.25.3.57.57,0,0,1-.34.1H400.17v9.66H410.5a.61.61,0,0,1,.35.11.86.86,0,0,1,.26.3,1.69,1.69,0,0,1,.16.52,6,6,0,0,1,0,.79,5.16,5.16,0,0,1,0,.73,1.63,1.63,0,0,1-.16.5.71.71,0,0,1-.26.28.78.78,0,0,1-.35.08H400.17v11h12.22a.59.59,0,0,1,.34.1.85.85,0,0,1,.27.29,1.44,1.44,0,0,1,.17.53A5.72,5.72,0,0,1,413.22,172.09Z" fill="#7c8a99"/><path d="M378.63,161.55a1.48,1.48,0,0,1-1.53,1.71H363a13.21,13.21,0,0,0,.36,3.22,6.18,6.18,0,0,0,1.2,2.45,5.36,5.36,0,0,0,2.17,1.57,8.62,8.62,0,0,0,3.28.55,14,14,0,0,0,2.73-.25,15.9,15.9,0,0,0,2.07-.56c.58-.21,1.06-.39,1.43-.56a2.32,2.32,0,0,1,.85-.25.61.61,0,0,1,.3.08.5.5,0,0,1,.2.25,1.55,1.55,0,0,1,.11.47,4.92,4.92,0,0,1,0,.72,4.16,4.16,0,0,1,0,.54,2.25,2.25,0,0,1-.06.4,1,1,0,0,1-.11.32,1.42,1.42,0,0,1-.22.28,3.88,3.88,0,0,1-.77.43,11.3,11.3,0,0,1-1.67.58,22.86,22.86,0,0,1-2.37.51,17.29,17.29,0,0,1-2.87.23,13.35,13.35,0,0,1-4.63-.74,8.61,8.61,0,0,1-3.34-2.19,9.43,9.43,0,0,1-2.05-3.64,17,17,0,0,1-.69-5.1,15.92,15.92,0,0,1,.72-5,10.42,10.42,0,0,1,2.06-3.74,8.93,8.93,0,0,1,3.24-2.35,10.66,10.66,0,0,1,4.27-.82,10.43,10.43,0,0,1,4.29.8,8.18,8.18,0,0,1,2.92,2.18,8.92,8.92,0,0,1,1.68,3.22,14.32,14.32,0,0,1,.53,3.94Zm-3.95-1.17a7.1,7.1,0,0,0-1.38-4.85,5.22,5.22,0,0,0-4.3-1.76,5.77,5.77,0,0,0-2.56.54,5.52,5.52,0,0,0-1.84,1.46,6.47,6.47,0,0,0-1.15,2.1,9.13,9.13,0,0,0-.46,2.51Z" fill="#7c8a99"/><path d="M355.14,169.93c0,.27,0,.5,0,.7a2.09,2.09,0,0,1-.08.5,2.46,2.46,0,0,1-.14.36,2.61,2.61,0,0,1-.38.45,6.46,6.46,0,0,1-1,.74,10.47,10.47,0,0,1-1.61.78A11.91,11.91,0,0,1,350,174a10.31,10.31,0,0,1-2.17.22,10.47,10.47,0,0,1-4.09-.76,7.72,7.72,0,0,1-3-2.23,10.14,10.14,0,0,1-1.83-3.59,17.39,17.39,0,0,1-.63-4.92,17.15,17.15,0,0,1,.77-5.44,10.23,10.23,0,0,1,2.12-3.72,8.38,8.38,0,0,1,3.17-2.16,10.76,10.76,0,0,1,3.93-.7,10,10,0,0,1,2,.19,10.68,10.68,0,0,1,1.78.5,8,8,0,0,1,1.44.71,5.66,5.66,0,0,1,.91.69,4,4,0,0,1,.4.46,1.39,1.39,0,0,1,.17.39,2.43,2.43,0,0,1,.1.51c0,.19,0,.43,0,.72a2.81,2.81,0,0,1-.21,1.29.61.61,0,0,1-.52.37,1.38,1.38,0,0,1-.83-.39q-.47-.39-1.17-.87a9,9,0,0,0-1.73-.87,6.65,6.65,0,0,0-2.39-.39,5,5,0,0,0-4.35,2.18,11.09,11.09,0,0,0-1.51,6.32,14.55,14.55,0,0,0,.4,3.63,7.4,7.4,0,0,0,1.15,2.6,4.74,4.74,0,0,0,1.87,1.56,6,6,0,0,0,2.53.51,6.21,6.21,0,0,0,2.38-.42,9.53,9.53,0,0,0,1.78-.95c.5-.34.92-.65,1.26-.92a1.49,1.49,0,0,1,.8-.42.45.45,0,0,1,.28.09.74.74,0,0,1,.2.33,2,2,0,0,1,.12.57A6.5,6.5,0,0,1,355.14,169.93Z" fill="#7c8a99"/><path d="M332.93,144.53a2.58,2.58,0,0,1-.52,1.88,2.85,2.85,0,0,1-1.93.5,2.73,2.73,0,0,1-1.89-.49,2.48,2.48,0,0,1-.52-1.84,2.57,2.57,0,0,1,.53-1.88,2.83,2.83,0,0,1,1.93-.5,2.73,2.73,0,0,1,1.89.49A2.53,2.53,0,0,1,332.93,144.53Zm-.45,28.66a.49.49,0,0,1-.1.32.72.72,0,0,1-.31.23,2.22,2.22,0,0,1-.59.14,8.56,8.56,0,0,1-1,.05,8.12,8.12,0,0,1-.95-.05,2.51,2.51,0,0,1-.61-.14.72.72,0,0,1-.31-.23.63.63,0,0,1-.08-.32V151.77a.65.65,0,0,1,.08-.31.6.6,0,0,1,.31-.24,2.51,2.51,0,0,1,.61-.14,6.39,6.39,0,0,1,.95-.05,6.75,6.75,0,0,1,1,.05,2.22,2.22,0,0,1,.59.14.6.6,0,0,1,.31.24.5.5,0,0,1,.1.31Z" fill="#7c8a99"/><path d="M324.1,151.72c0,.06,0,.13,0,.2a2.23,2.23,0,0,1,0,.23,1.58,1.58,0,0,1-.06.26c0,.09-.05.2-.08.31l-7.31,20.35a1.19,1.19,0,0,1-.25.43,1,1,0,0,1-.46.26,3.7,3.7,0,0,1-.79.13c-.32,0-.71,0-1.19,0s-.87,0-1.19-.05a4,4,0,0,1-.77-.14,1.23,1.23,0,0,1-.47-.26,1.15,1.15,0,0,1-.26-.41l-7.28-20.35c-.07-.19-.12-.36-.16-.5a2.42,2.42,0,0,1-.07-.32,1.21,1.21,0,0,1,0-.18.58.58,0,0,1,.09-.33.7.7,0,0,1,.33-.23,2.14,2.14,0,0,1,.59-.11l.92,0a10.78,10.78,0,0,1,1.1,0,1.94,1.94,0,0,1,.65.13.77.77,0,0,1,.33.23,2,2,0,0,1,.2.36l6,17.66.09.29.08-.29,6-17.66a.86.86,0,0,1,.17-.36.88.88,0,0,1,.34-.23,1.86,1.86,0,0,1,.62-.13,9.75,9.75,0,0,1,1,0l.9,0a1.74,1.74,0,0,1,.56.12.78.78,0,0,1,.29.23A.63.63,0,0,1,324.1,151.72Z" fill="#7c8a99"/><path d="M301.61,153.17c0,.35,0,.64,0,.88a2.18,2.18,0,0,1-.1.56.82.82,0,0,1-.18.31.4.4,0,0,1-.29.11,1.37,1.37,0,0,1-.47-.11l-.62-.21-.77-.21a4.59,4.59,0,0,0-.93-.09,3,3,0,0,0-1.17.24,4.68,4.68,0,0,0-1.2.78,10.2,10.2,0,0,0-1.32,1.45c-.46.61-1,1.35-1.52,2.22v14.09a.49.49,0,0,1-.1.32.72.72,0,0,1-.31.23,2.22,2.22,0,0,1-.59.14,8.56,8.56,0,0,1-1,.05,8.12,8.12,0,0,1-1-.05,2.51,2.51,0,0,1-.61-.14.72.72,0,0,1-.31-.23.63.63,0,0,1-.08-.32V151.77a.54.54,0,0,1,.36-.56,1.52,1.52,0,0,1,.54-.14,7.21,7.21,0,0,1,.89,0,7,7,0,0,1,.86,0,1.41,1.41,0,0,1,.54.14.65.65,0,0,1,.27.24.53.53,0,0,1,.09.32v3.12a16.58,16.58,0,0,1,1.65-2.1,9.28,9.28,0,0,1,1.46-1.27,4.72,4.72,0,0,1,1.37-.65,5.84,5.84,0,0,1,1.37-.17l.7,0c.27,0,.54.07.83.13s.54.14.77.22a2.06,2.06,0,0,1,.49.23.74.74,0,0,1,.19.23,1.25,1.25,0,0,1,.08.27,4.16,4.16,0,0,1,.05.49C301.61,152.52,301.61,152.81,301.61,153.17Z" fill="#7c8a99"/><path d="M283.12,161.55a1.64,1.64,0,0,1-.47,1.32,1.62,1.62,0,0,1-1.06.39H267.48a13.21,13.21,0,0,0,.36,3.22,6,6,0,0,0,1.19,2.45,5.4,5.4,0,0,0,2.18,1.57,8.53,8.53,0,0,0,3.27.55,13.88,13.88,0,0,0,2.73-.25,15.9,15.9,0,0,0,2.07-.56c.58-.21,1.06-.39,1.44-.56a2.22,2.22,0,0,1,.85-.25.55.55,0,0,1,.29.08.58.58,0,0,1,.21.25,1.58,1.58,0,0,1,.1.47,4.92,4.92,0,0,1,0,.72c0,.21,0,.39,0,.54s0,.28-.06.4a1.33,1.33,0,0,1-.12.32,1.42,1.42,0,0,1-.22.28,3.57,3.57,0,0,1-.77.43,10.9,10.9,0,0,1-1.67.58A23.21,23.21,0,0,1,277,174a17.47,17.47,0,0,1-2.87.23,13.31,13.31,0,0,1-4.63-.74,8.57,8.57,0,0,1-3.35-2.19,9.41,9.41,0,0,1-2-3.64,17,17,0,0,1-.69-5.1,15.93,15.93,0,0,1,.71-5,10.57,10.57,0,0,1,2.06-3.74,9,9,0,0,1,3.25-2.35,11.71,11.71,0,0,1,8.56,0,8.14,8.14,0,0,1,2.91,2.18,8.92,8.92,0,0,1,1.68,3.22,14,14,0,0,1,.54,3.94Zm-4-1.17a7.15,7.15,0,0,0-1.37-4.85,5.23,5.23,0,0,0-4.3-1.76,5.71,5.71,0,0,0-2.56.54,5.55,5.55,0,0,0-1.85,1.46,6.66,6.66,0,0,0-1.15,2.1,8.77,8.77,0,0,0-.45,2.51Z" fill="#7c8a99"/><path d="M259.43,165.14a8.82,8.82,0,0,1-.8,3.86,8.32,8.32,0,0,1-2.21,2.87,9.58,9.58,0,0,1-3.33,1.77,13.79,13.79,0,0,1-4.13.6,15.16,15.16,0,0,1-2.87-.26,15.64,15.64,0,0,1-2.36-.65,10.6,10.6,0,0,1-1.73-.78,4.59,4.59,0,0,1-1-.69,1.85,1.85,0,0,1-.41-.73,4.53,4.53,0,0,1-.13-1.18,6.81,6.81,0,0,1,.05-.87,2.28,2.28,0,0,1,.14-.56.65.65,0,0,1,.24-.29.64.64,0,0,1,.34-.09,2,2,0,0,1,.94.41,14.26,14.26,0,0,0,1.56.88,15.26,15.26,0,0,0,2.29.89,10.45,10.45,0,0,0,3.11.42,7.86,7.86,0,0,0,2.44-.36,5.65,5.65,0,0,0,1.9-1,4.44,4.44,0,0,0,1.23-1.61,5.27,5.27,0,0,0,.43-2.16,4,4,0,0,0-.6-2.24,6.06,6.06,0,0,0-1.57-1.63,13.47,13.47,0,0,0-2.23-1.29l-2.55-1.19a25.73,25.73,0,0,1-2.55-1.34,10.48,10.48,0,0,1-2.21-1.74,8.14,8.14,0,0,1-1.59-2.34,7.93,7.93,0,0,1-.6-3.23,8.07,8.07,0,0,1,.7-3.44,7.08,7.08,0,0,1,2-2.53,8.38,8.38,0,0,1,3-1.56,12.39,12.39,0,0,1,3.72-.54,12,12,0,0,1,2.06.18,13.9,13.9,0,0,1,2,.48,10.42,10.42,0,0,1,1.63.66,4.24,4.24,0,0,1,.94.6,2.25,2.25,0,0,1,.3.35,1.22,1.22,0,0,1,.12.34,4.41,4.41,0,0,1,.07.49c0,.19,0,.43,0,.73s0,.54,0,.77a3.13,3.13,0,0,1-.11.55.66.66,0,0,1-.2.34.47.47,0,0,1-.3.1,1.94,1.94,0,0,1-.82-.33c-.37-.22-.83-.47-1.37-.75a11.81,11.81,0,0,0-1.92-.76,8.26,8.26,0,0,0-2.48-.34,6.56,6.56,0,0,0-2.24.34,4.62,4.62,0,0,0-1.57.92,3.72,3.72,0,0,0-.93,1.35,4.46,4.46,0,0,0-.31,1.67,4,4,0,0,0,.6,2.21,6,6,0,0,0,1.58,1.65,15,15,0,0,0,2.25,1.31l2.57,1.2c.87.4,1.73.85,2.57,1.33a10.94,10.94,0,0,1,2.25,1.71,7.69,7.69,0,0,1,1.59,2.34A7.53,7.53,0,0,1,259.43,165.14Z" fill="#7c8a99"/></g><path id="UDINA" d="M555.64,72.92c-7.76,25.45-10,32.74-16.33,53.55h-22.8l27.21-72.3h24.46l27.1,72.3h-23.4c-6.46-21.26-8.36-27.61-16.24-53.55M440.86,54.17h20.85l27.11,39.92V54.17h21.11v72.3H488.82l-27-39.7v39.7h-21Zm-38.59,0h22.42v72.3H402.27ZM345.43,70.53V110h5.49q7,0,10-1.55a10.63,10.63,0,0,0,4.65-5.42c1.13-2.59,1.68-6.76,1.68-12.55q0-11.49-3.75-15.72T351,70.53ZM323.11,54.17h33.21c6.53,0,11.83.89,15.85,2.66a26,26,0,0,1,10,7.64,31.62,31.62,0,0,1,5.71,11.59,53.57,53.57,0,0,1,1.78,14q0,11.58-2.64,18a29.59,29.59,0,0,1-7.32,10.71,24.08,24.08,0,0,1-10.07,5.75,52.05,52.05,0,0,1-13.31,2H323.11Zm-37.36,0h22.32V97.24a36.28,36.28,0,0,1-2,12.08,26,26,0,0,1-6.26,10,25,25,0,0,1-8.93,6,45.38,45.38,0,0,1-15.64,2.41,98.76,98.76,0,0,1-11.51-.74A30,30,0,0,1,253.28,124a25.86,25.86,0,0,1-7.65-6.22,22.83,22.83,0,0,1-4.77-8.34,43.05,43.05,0,0,1-2.07-12.21V54.17h22.32V98.26q0,5.91,3.26,9.23t9.09,3.33q5.75,0,9-3.28t3.26-9.28Z" fill="#0c4878" fill-rule="evenodd"/><g id="symbol"><path d="M25.77,44.63,0,89.26H.34c20.55,0,41.12-.07,61.67,0L82.54,53.7,51.53,0Z" fill="#1297e0" fill-rule="evenodd"/><polygon points="0 91.48 0.73 91.48 1.74 91.48 62.01 91.48 82.54 127.04 51.7 180.45 51.53 180.74 25.77 136.12 0 91.48" fill="#0067b0" fill-rule="evenodd"/><polygon points="53.46 181.85 84.46 128.16 125.53 128.16 156.53 181.85 105 181.85 53.46 181.85" fill="#0287d0" fill-rule="evenodd"/><path d="M158.46,180.75l-.37-.64-.5-.87-.51-.88-.5-.87Q142,152.26,127.46,127.05L148,91.49h62l-25.77,44.62Z" fill="#16a6ef" fill-rule="evenodd"/><polygon points="209.99 89.26 147.99 89.26 127.46 53.7 158.46 0 184.23 44.63 209.99 89.26" fill="#29c5ff" fill-rule="evenodd"/></g></svg>