<svg
        xmlns="http://www.w3.org/2000/svg"
        viewBox="0 0 1280 1280">
    <path
            d="M159.2,359.05,2.84,629.87h2c124.73,0,249.52-.38,374.24,0L503.7,414.08,315.55,88.21Z"
            fill="#1297e0"
            fill-rule="evenodd" />
    <polygon
            points="2.83 643.37 7.26 643.37 13.38 643.37 379.11 643.38 503.7 859.18 316.56 1183.28 315.54 1185.04 159.2 914.23 2.83 643.37"
            fill="#0067b0"
            fill-rule="evenodd" />
    <polygon
            points="327.27 1191.79 515.4 865.98 764.62 865.98 952.72 1191.79 639.99 1191.79 327.27 1191.79"
            fill="#0287d0"
            fill-rule="evenodd" />
    <path
            d="M964.44,1185.08l-2.22-3.84-3.06-5.32-3.06-5.3-3.06-5.3Q864.81,1012.2,776.3,859.19L900.9,643.42h376.25L1120.8,914.22Z"
            fill="#16a6ef"
            fill-rule="evenodd" />
    <polygon
            points="1277.17 629.87 900.88 629.87 776.32 414.06 964.45 88.24 1120.81 359.04 1277.17 629.87"
            fill="#29c5ff"
            fill-rule="evenodd" />
</svg>